<svg width="28" height="28" viewBox="0 0 28 28" fill="none" xmlns="http://www.w3.org/2000/svg">
<path d="M14.0001 0.666668C21.3641 0.666668 27.3334 6.636 27.3334 14C27.3334 21.364 21.3641 27.3333 14.0001 27.3333C6.63608 27.3333 0.666748 21.364 0.666748 14C0.666748 6.636 6.63608 0.666668 14.0001 0.666668ZM10.0707 9.44667C10.0241 9.53978 9.99988 9.64252 10.0001 9.74667V18.256C10.0001 18.3697 10.0292 18.4815 10.0845 18.5808C10.1399 18.68 10.2198 18.7635 10.3165 18.8232C10.4133 18.883 10.5237 18.917 10.6372 18.922C10.7508 18.927 10.8638 18.9029 10.9654 18.852L19.4748 14.5987C19.5857 14.5434 19.679 14.4583 19.7442 14.3529C19.8095 14.2475 19.844 14.126 19.844 14.002C19.844 13.878 19.8095 13.7565 19.7442 13.6511C19.679 13.5458 19.5857 13.4606 19.4748 13.4053L10.9654 9.14934C10.8073 9.07013 10.6243 9.05696 10.4565 9.11272C10.2887 9.16848 10.15 9.2886 10.0707 9.44667Z" fill="#59A4F2"/>
</svg>
